<svg width="204" height="199" viewBox="0 0 204 199" fill="none" xmlns="http://www.w3.org/2000/svg">
<ellipse cx="101.641" cy="175.863" rx="101.641" ry="22.7197" fill="#EFEFEF"/>
<rect y="158.524" width="203.282" height="17.3387" fill="#EFEFEF"/>
<ellipse cx="101.641" cy="159.72" rx="101.641" ry="22.7197" fill="#BEBEBE"/>
<ellipse cx="101.641" cy="159.926" rx="74.8932" ry="16.8128" fill="#BEBEBE"/>
<path d="M60 0H159L143.5 9.23537H45.0001L60 0Z" fill="#BEBEBE"/>
<path d="M60 0H159L143.5 9.23537H45.0001L60 0Z" fill="#BEBEBE"/>
<path d="M92.0001 153V87.5L76.5001 96V161.5L92.0001 153Z" fill="#D1D1D1"/>
<path d="M92.0001 153V87.5L76.5001 96V161.5L92.0001 153Z" fill="#D1D1D1"/>
<path d="M92.0001 63.5V24.5L76.5001 33V72L92.0001 63.5Z" fill="#D1D1D1"/>
<path d="M92.0001 63.5V24.5L76.5001 33V72L92.0001 63.5Z" fill="#D1D1D1"/>
<path d="M159 25.9998V6.48499e-05L143 9V34.9998L159 25.9998Z" fill="#D1D1D1"/>
<path d="M159 25.9998V6.48499e-05L143 9V34.9998L159 25.9998Z" fill="#D1D1D1"/>
<path d="M152 88.0006V63.1521L137 72.1395V96L152 88.0006Z" fill="#D1D1D1"/>
<path d="M152 88.0006V63.1521L137 72.1395V96L152 88.0006Z" fill="#D1D1D1"/>
<path d="M92.0001 63L152 63.15L137 72.2295H76.5001L92.0001 63Z" fill="#BEBEBE"/>
<path d="M92.0001 63L152 63.15L137 72.2295H76.5001L92.0001 63Z" fill="#BEBEBE"/>
<path d="M135.039 76.1406V74.1406H133.039H74.8829V32.8281H139.094H141.094V30.8281V13.0547V11.0547H139.094H49.0547H47.0547V13.0547V157V159H49.0547H72.8829H74.8829V157V94.1562H133.039H135.039V92.1562V76.1406Z" fill="#EFEFEF" stroke="#EFEFEF" stroke-width="4"/>
</svg>
